<?xml version="1.0" standalone="no"?>
<!DOCTYPE svg PUBLIC "-//W3C//DTD SVG 20010904//EN"
 "http://www.w3.org/TR/2001/REC-SVG-20010904/DTD/svg10.dtd">
<svg version="1.0" xmlns="http://www.w3.org/2000/svg"
 width="640.000000pt" height="1280.000000pt" viewBox="0 0 640.000000 1280.000000"
 preserveAspectRatio="xMidYMid meet">
<metadata>
Created by potrace 1.15, written by Peter Selinger 2001-2017
</metadata>
<g transform="translate(0.000000,1280.000000) scale(0.100000,-0.100000)"
fill="#000000" stroke="none">
<path d="M2037 12790 c-76 -13 -139 -49 -160 -92 -31 -63 -40 -202 -33 -538 3
-173 10 -376 16 -450 5 -74 15 -198 20 -275 59 -770 213 -2156 395 -3550 56
-428 141 -1060 170 -1261 8 -56 15 -104 15 -108 0 -3 -142 -6 -315 -6 l-314 0
-7 -36 c-11 -61 2 -284 21 -335 28 -80 123 -169 180 -169 74 0 72 -462 -5
-1180 -6 -52 -24 -223 -40 -380 -17 -157 -44 -404 -60 -550 -26 -237 -72 -669
-100 -945 -25 -249 -52 -577 -82 -995 -17 -240 -17 -915 0 -1045 22 -162 51
-285 87 -360 122 -254 413 -423 847 -491 140 -23 551 -26 698 -5 554 75 957
231 1158 446 52 55 65 76 86 144 50 159 60 279 60 711 0 217 -5 483 -12 590
-16 245 -49 690 -62 835 -42 460 -53 571 -170 1733 -79 782 -105 1133 -98
1315 5 133 15 157 63 157 61 0 117 66 143 170 18 68 32 204 32 302 l0 88 -331
0 -332 0 6 53 c6 47 33 278 87 752 56 488 154 1393 220 2025 31 306 81 809
120 1215 6 61 13 133 15 160 3 28 10 104 15 170 84 981 103 1300 98 1612 -3
220 -3 222 -28 249 -74 79 -146 74 -489 -36 -361 -116 -508 -143 -776 -144
-248 0 -401 29 -700 135 -218 78 -347 104 -438 89z"/>
</g>
</svg>
